<svg viewBox="0 0 24 24" xmlns="http://www.w3.org/2000/svg">
    <path
        d="m21.75 14.5006878c0 2.505888-2.0994463 4.2493122-4.8 4.2493122h-9c-3.13325 0-5.7-2.4445238-5.7-5.4642857 0-2.6027399 1.95357038-4.73865617 4.59890855-5.22459449 1.14260179-1.71099298 3.09319673-2.81111981 5.15109145-2.81111981 2.7230956 0 5.2232947 2.33416287 5.9476424 5.076598 2.2272989.4015627 3.8023576 2.0003827 3.8023576 4.1740898zm-4.8 2.7493122c1.927348 0 3.3-1.139879 3.3-2.7493122 0-1.5078837-1.194794-2.5969852-2.9872538-2.7535319l-.5748782-.0502077-.098795-.5685466c-.3996095-2.29967794-2.4767631-4.3784016-4.589073-4.3784016-1.6355772 0-3.20840739.94252776-4.05104125 2.37940001l-.18729393.31937652-.36743343.04553078c-2.10174757.2604396-3.64423139 1.85848439-3.64423139 3.79140699 0 2.1745238 1.87925 3.9642857 4.2 3.9642857z"
        fill="#80868b"></path>
</svg>