<svg viewBox="0 0 25 25" fill="none" xmlns="http://www.w3.org/2000/svg">
    <path
        d="M12.5 3.125L4.16667 9.375V21.875H20.8333V9.375L12.5 3.125ZM18.75 19.7917H15.625V13.5417H9.375V19.7917H6.25V10.4167L12.5 5.72917L18.75 10.4167V19.7917Z"
        fill="#BEC1C6"></path>
    <path d="M13.9999 4.60996L12.3522 3.2458L5.55 8.33L6.8 10.01L13.9999 4.60996Z" fill="#4285F5"></path>
    <path d="M10.8601 4.49985L12.5 3.12L15.311 5.23894L13.6405 6.58449L10.8601 4.49985Z" fill="#4285F5"></path>
    <rect x="18.75" y="18.8799" width="2.08" height="3" fill="#57A55B"></rect>
    <rect x="18.75" y="12.8999" width="2.08" height="6" fill="#F3BC41"></rect>
    <rect x="18.75" y="9.37988" width="2.08" height="3.52" fill="#D95040"></rect>
    <path d="M13.6 6.54989L15.1 5.06L20.84 9.3799L18.8007 10.449L13.6 6.54989Z" fill="#D95040"></path>
</svg>