<svg viewBox="0 0 24 24" xmlns="http://www.w3.org/2000/svg">
    <g fill="none" fill-rule="evenodd">
        <path d="m0 0h24v24h-24z"></path>
        <g stroke="#80868b" stroke-width="1.5">
            <path
                d="m16.3093419 6.48330607 1.969967-.80810093c.3473111-.14247066.7464604-.0062157.934159.31888768l1.5945342 2.76181436c.1876985.32510338.1061241.73890428-.1909146.96844926l-1.6843132 1.30159976c.0443167.3183298.0672257.6435115.0672257.9740438s-.022909.655714-.0672257.9740438l1.6843132 1.3015998c.2970387.2295449.3786131.6433458.1909146.9684492l-1.5945342 2.7618144c-.1876986.3251034-.5868479.4613583-.934159.3188877l-1.969967-.808101c-.5101624.399075-1.0770909.7289237-1.6866538.975414l-.2849095 2.1083305c-.0502724.3720157-.3678473.6495616-.7432443.6495616h-3.1890686c-.375397 0-.69297191-.2775459-.74324429-.6495616l-.28490953-2.1083305c-.60956284-.2464903-1.17649141-.576339-1.68665377-.975414l-1.96996697.808101c-.34731118.1424706-.74646047.0062157-.93415899-.3188877l-1.59453427-2.7618144c-.18769852-.3251034-.10612413-.7389043.19091467-.9684492l1.68431319-1.3015998c-.04431677-.3183298-.06722574-.6435115-.06722574-.9740438s.02290897-.655714.06722574-.9740438l-1.68431319-1.30159976c-.2970388-.22954498-.37861319-.64334588-.19091467-.96844926l1.59453427-2.76181436c.18769852-.32510338.58684781-.46135834.93415899-.31888768l1.96996697.80810093c.51016236-.39907499 1.07709093-.72892365 1.68665377-.975414l.28490953-2.10833049c.05027238-.37201563.36784729-.64956158.74324429-.64956158h3.1890686c.375397 0 .6929719.27754595.7432443.64956158l.2849095 2.10833049c.6095629.24649035 1.1764914.57633901 1.6866538.975414z">
            </path>
            <circle cx="12" cy="12" r="2.5" stroke-linejoin="round"></circle>
        </g>
    </g>
</svg>