<svg xmlns="http://www.w3.org/2000/svg" viewBox="0 0 24 24">
    <path fill="none" fill-rule="evenodd" clip-rule="evenodd"
        d="M12.0412 21C13.8366 19.9972 15.7855 18.3696 17.8879 16.1172C21.0415 12.7386 21.481 9.53167 20.7258 7.63892C19.9707 5.74617 18.1284 3.78502 14.9549 4.03868C13.6498 4.143 11.0772 4.93274 10.1348 7.41023C9.17829 9.92467 10.2013 11.9178 12.0503 11.9296C13.8992 11.9414 14.4555 10.167 14.1036 8.23062C14.0285 7.81745 13.874 7.33369 13.6547 6.91124C13.0227 5.69394 11.9282 4.70344 9.82223 4.15207C6.9854 3.40935 4.42045 5.55895 3.73902 6.88915C3.05759 8.21936 2.42869 10.1852 3.88225 12.8888C4.26102 13.5933 4.79865 14.3271 5.36804 15.1196C6.49122 16.6831 8.7156 18.6432 12.0412 21Z"
        stroke="#80868B" stroke-width="1.5"></path>
</svg>